<mxfile host="app.diagrams.net" modified="2020-09-08T10:36:42.106Z" agent="5.0 (Windows NT 10.0; Win64; x64) AppleWebKit/537.36 (KHTML, like Gecko) Chrome/85.0.4183.83 Safari/537.36" etag="R7dMxauMW2XAhHc2DbHi" version="13.6.9" type="github">
  <diagram name="Page-1" id="e3a06f82-3646-2815-327d-82caf3d4e204">
    <mxGraphModel dx="1847" dy="750" grid="1" gridSize="10" guides="1" tooltips="1" connect="1" arrows="1" fold="1" page="1" pageScale="1.5" pageWidth="1169" pageHeight="826" background="none" math="0" shadow="0">
      <root>
        <mxCell id="0" style=";html=1;" />
        <mxCell id="1" style=";html=1;" parent="0" />
        <mxCell id="6a7d8f32e03d9370-60" value="Enterprise cloud" style="whiteSpace=wrap;html=1;fillColor=#d5e8d4;fontSize=14;strokeColor=none;verticalAlign=top;" parent="1" vertex="1">
          <mxGeometry x="970" y="21" width="602" height="521" as="geometry" />
        </mxCell>
        <mxCell id="6a7d8f32e03d9370-59" value="Server&lt;br&gt;" style="whiteSpace=wrap;html=1;fillColor=#EDEDED;fontSize=14;strokeColor=none;verticalAlign=top;" parent="1" vertex="1">
          <mxGeometry x="240" y="20" width="690" height="522" as="geometry" />
        </mxCell>
        <mxCell id="6a7d8f32e03d9370-58" value="Residential Private Networks" style="whiteSpace=wrap;html=1;fillColor=#dae8fc;fontSize=14;strokeColor=none;verticalAlign=top;" parent="1" vertex="1">
          <mxGeometry x="330" y="570" width="1200" height="366" as="geometry" />
        </mxCell>
        <mxCell id="6a7d8f32e03d9370-36" style="edgeStyle=none;rounded=0;html=1;startSize=10;endSize=10;jettySize=auto;orthogonalLoop=1;fontSize=14;endArrow=none;endFill=0;strokeWidth=2;entryX=0.763;entryY=0.586;entryDx=0;entryDy=0;entryPerimeter=0;" parent="1" source="6a7d8f32e03d9370-1" target="6a7d8f32e03d9370-8" edge="1">
          <mxGeometry relative="1" as="geometry">
            <mxPoint x="866" y="739.4625000000001" as="targetPoint" />
          </mxGeometry>
        </mxCell>
        <mxCell id="6a7d8f32e03d9370-1" value="Client" style="verticalLabelPosition=bottom;aspect=fixed;html=1;verticalAlign=top;strokeColor=none;shape=mxgraph.citrix.laptop_2;fillColor=#66B2FF;gradientColor=#0066CC;fontSize=14;" parent="1" vertex="1">
          <mxGeometry x="1050" y="610" width="116" height="86.5" as="geometry" />
        </mxCell>
        <mxCell id="6a7d8f32e03d9370-37" style="edgeStyle=none;rounded=0;html=1;startSize=10;endSize=10;jettySize=auto;orthogonalLoop=1;fontSize=14;endArrow=none;endFill=0;strokeWidth=2;entryX=0.741;entryY=0.661;entryDx=0;entryDy=0;entryPerimeter=0;" parent="1" source="6a7d8f32e03d9370-6" target="6a7d8f32e03d9370-8" edge="1">
          <mxGeometry relative="1" as="geometry">
            <mxPoint x="866" y="765.0036101083033" as="targetPoint" />
          </mxGeometry>
        </mxCell>
        <mxCell id="6a7d8f32e03d9370-6" value="Client" style="verticalLabelPosition=bottom;aspect=fixed;html=1;verticalAlign=top;strokeColor=none;shape=mxgraph.citrix.pda;fillColor=#66B2FF;gradientColor=#0066CC;fontSize=14;" parent="1" vertex="1">
          <mxGeometry x="1090" y="810" width="30" height="61" as="geometry" />
        </mxCell>
        <mxCell id="6a7d8f32e03d9370-39" style="edgeStyle=none;rounded=0;html=1;startSize=10;endSize=10;jettySize=auto;orthogonalLoop=1;fontSize=14;endArrow=none;endFill=0;strokeWidth=2;" parent="1" source="6a7d8f32e03d9370-8" target="6a7d8f32e03d9370-21" edge="1">
          <mxGeometry relative="1" as="geometry">
            <mxPoint x="737" y="846" as="targetPoint" />
          </mxGeometry>
        </mxCell>
        <mxCell id="6a7d8f32e03d9370-8" value="" style="verticalLabelPosition=bottom;aspect=fixed;html=1;verticalAlign=top;strokeColor=none;shape=mxgraph.citrix.xenapp_server;fillColor=#66B2FF;gradientColor=#0066CC;fontSize=14;" parent="1" vertex="1">
          <mxGeometry x="559.9999999999999" y="709.5" width="76" height="89" as="geometry" />
        </mxCell>
        <mxCell id="6a7d8f32e03d9370-50" style="edgeStyle=none;rounded=0;html=1;startSize=10;endSize=10;jettySize=auto;orthogonalLoop=1;fontSize=14;endArrow=none;endFill=0;strokeWidth=2;" parent="1" source="6a7d8f32e03d9370-13" target="6a7d8f32e03d9370-16" edge="1">
          <mxGeometry relative="1" as="geometry" />
        </mxCell>
        <mxCell id="6a7d8f32e03d9370-51" style="edgeStyle=none;rounded=0;html=1;startSize=10;endSize=10;jettySize=auto;orthogonalLoop=1;fontSize=14;endArrow=none;endFill=0;strokeWidth=2;exitX=0.683;exitY=0.167;exitDx=0;exitDy=0;exitPerimeter=0;" parent="1" source="6tzZUwA_6-HjAS6rVnxu-2" target="6a7d8f32e03d9370-15" edge="1">
          <mxGeometry relative="1" as="geometry" />
        </mxCell>
        <mxCell id="6a7d8f32e03d9370-56" style="edgeStyle=none;rounded=0;html=1;startSize=10;endSize=10;jettySize=auto;orthogonalLoop=1;fontSize=14;endArrow=none;endFill=0;strokeWidth=2;" parent="1" source="6a7d8f32e03d9370-13" target="6a7d8f32e03d9370-25" edge="1">
          <mxGeometry relative="1" as="geometry" />
        </mxCell>
        <mxCell id="6a7d8f32e03d9370-13" value="" style="verticalLabelPosition=bottom;aspect=fixed;html=1;verticalAlign=top;strokeColor=none;shape=mxgraph.citrix.router;fillColor=#66B2FF;gradientColor=#0066CC;fontSize=14;" parent="1" vertex="1">
          <mxGeometry x="1010" y="100" width="55" height="36.5" as="geometry" />
        </mxCell>
        <mxCell id="6a7d8f32e03d9370-15" value="Web Server" style="verticalLabelPosition=top;aspect=fixed;html=1;verticalAlign=bottom;strokeColor=none;shape=mxgraph.citrix.cache_server;fillColor=#66B2FF;gradientColor=#0066CC;fontSize=14;labelPosition=center;align=center;" parent="1" vertex="1">
          <mxGeometry x="540" y="80" width="71" height="97.5" as="geometry" />
        </mxCell>
        <mxCell id="6a7d8f32e03d9370-16" value="DNS" style="verticalLabelPosition=bottom;aspect=fixed;html=1;verticalAlign=top;strokeColor=none;shape=mxgraph.citrix.chassis;fillColor=#66B2FF;gradientColor=#0066CC;fontSize=14;" parent="1" vertex="1">
          <mxGeometry x="990" y="322.5" width="137.5" height="177.5" as="geometry" />
        </mxCell>
        <mxCell id="6a7d8f32e03d9370-48" style="edgeStyle=none;rounded=0;html=1;startSize=10;endSize=10;jettySize=auto;orthogonalLoop=1;fontSize=14;endArrow=none;endFill=0;strokeWidth=2;" parent="1" source="6a7d8f32e03d9370-21" target="6tzZUwA_6-HjAS6rVnxu-1" edge="1">
          <mxGeometry relative="1" as="geometry" />
        </mxCell>
        <mxCell id="6a7d8f32e03d9370-21" value="" style="verticalLabelPosition=bottom;aspect=fixed;html=1;verticalAlign=top;strokeColor=none;shape=mxgraph.citrix.firewall;fillColor=#66B2FF;gradientColor=#0066CC;fontSize=14;" parent="1" vertex="1">
          <mxGeometry x="550" y="590" width="75" height="93" as="geometry" />
        </mxCell>
        <mxCell id="6a7d8f32e03d9370-23" value="" style="verticalLabelPosition=bottom;aspect=fixed;html=1;verticalAlign=top;strokeColor=none;shape=mxgraph.citrix.home_office;fillColor=#66B2FF;gradientColor=#0066CC;fontSize=14;" parent="1" vertex="1">
          <mxGeometry x="1210" y="740" width="80" height="55.5" as="geometry" />
        </mxCell>
        <mxCell id="6a7d8f32e03d9370-25" value="Secure Server" style="verticalLabelPosition=bottom;aspect=fixed;html=1;verticalAlign=top;strokeColor=none;shape=mxgraph.citrix.proxy_server;fillColor=#66B2FF;gradientColor=#0066CC;fontSize=14;" parent="1" vertex="1">
          <mxGeometry x="1232.75" y="205" width="76.5" height="90" as="geometry" />
        </mxCell>
        <mxCell id="6a7d8f32e03d9370-31" value="" style="verticalLabelPosition=bottom;aspect=fixed;html=1;verticalAlign=top;strokeColor=none;shape=mxgraph.citrix.site;fillColor=#66B2FF;gradientColor=#0066CC;fontSize=14;" parent="1" vertex="1">
          <mxGeometry x="1409" y="399" width="107" height="101" as="geometry" />
        </mxCell>
        <mxCell id="6tzZUwA_6-HjAS6rVnxu-1" value="" style="image;html=1;image=img/lib/clip_art/networking/Cloud_Server_128x128.png" vertex="1" parent="1">
          <mxGeometry x="455.5" y="310" width="240" height="190" as="geometry" />
        </mxCell>
        <mxCell id="6tzZUwA_6-HjAS6rVnxu-2" value="Web service" style="verticalLabelPosition=bottom;aspect=fixed;html=1;verticalAlign=top;strokeColor=none;shape=mxgraph.citrix.web_service;fillColor=#66B2FF;gradientColor=#0066CC;fontSize=14;" vertex="1" parent="1">
          <mxGeometry x="330" y="220" width="63" height="60" as="geometry" />
        </mxCell>
        <mxCell id="6tzZUwA_6-HjAS6rVnxu-3" value="Web service" style="verticalLabelPosition=bottom;aspect=fixed;html=1;verticalAlign=top;strokeColor=none;shape=mxgraph.citrix.web_service;fillColor=#66B2FF;gradientColor=#0066CC;fontSize=14;" vertex="1" parent="1">
          <mxGeometry x="455.5" y="220" width="63" height="60" as="geometry" />
        </mxCell>
        <mxCell id="6tzZUwA_6-HjAS6rVnxu-4" value="Web service" style="verticalLabelPosition=bottom;aspect=fixed;html=1;verticalAlign=top;strokeColor=none;shape=mxgraph.citrix.web_service;fillColor=#66B2FF;gradientColor=#0066CC;fontSize=14;" vertex="1" parent="1">
          <mxGeometry x="576.5" y="230" width="63" height="60" as="geometry" />
        </mxCell>
        <mxCell id="6tzZUwA_6-HjAS6rVnxu-7" style="edgeStyle=none;rounded=0;html=1;startSize=10;endSize=10;jettySize=auto;orthogonalLoop=1;fontSize=14;endArrow=none;endFill=0;strokeWidth=2;entryX=0.324;entryY=0.803;entryDx=0;entryDy=0;entryPerimeter=0;exitX=0.841;exitY=0.444;exitDx=0;exitDy=0;exitPerimeter=0;" edge="1" parent="1" source="6tzZUwA_6-HjAS6rVnxu-3" target="6a7d8f32e03d9370-15">
          <mxGeometry relative="1" as="geometry">
            <mxPoint x="635.999" y="205.80999999999997" as="sourcePoint" />
            <mxPoint x="832.9700000000003" y="120.00466010814242" as="targetPoint" />
          </mxGeometry>
        </mxCell>
        <mxCell id="6tzZUwA_6-HjAS6rVnxu-8" style="edgeStyle=none;rounded=0;html=1;startSize=10;endSize=10;jettySize=auto;orthogonalLoop=1;fontSize=14;endArrow=none;endFill=0;strokeWidth=2;entryX=0.535;entryY=0.821;entryDx=0;entryDy=0;entryPerimeter=0;" edge="1" parent="1" source="6tzZUwA_6-HjAS6rVnxu-4" target="6a7d8f32e03d9370-15">
          <mxGeometry relative="1" as="geometry">
            <mxPoint x="462.9830000000002" y="256.6400000000001" as="sourcePoint" />
            <mxPoint x="573.0040000000001" y="168.29250000000002" as="targetPoint" />
          </mxGeometry>
        </mxCell>
        <mxCell id="6tzZUwA_6-HjAS6rVnxu-9" value="Web service" style="verticalLabelPosition=bottom;aspect=fixed;html=1;verticalAlign=top;strokeColor=none;shape=mxgraph.citrix.web_service;fillColor=#66B2FF;gradientColor=#0066CC;fontSize=14;" vertex="1" parent="1">
          <mxGeometry x="695.5" y="240" width="63" height="60" as="geometry" />
        </mxCell>
        <mxCell id="6tzZUwA_6-HjAS6rVnxu-10" style="edgeStyle=none;rounded=0;html=1;startSize=10;endSize=10;jettySize=auto;orthogonalLoop=1;fontSize=14;endArrow=none;endFill=0;strokeWidth=2;entryX=1.052;entryY=0.957;entryDx=0;entryDy=0;entryPerimeter=0;exitX=0.251;exitY=0.111;exitDx=0;exitDy=0;exitPerimeter=0;" edge="1" parent="1" source="6tzZUwA_6-HjAS6rVnxu-9" target="6a7d8f32e03d9370-15">
          <mxGeometry relative="1" as="geometry">
            <mxPoint x="608.9912208298942" y="240" as="sourcePoint" />
            <mxPoint x="587.9850000000001" y="170.0475" as="targetPoint" />
          </mxGeometry>
        </mxCell>
        <mxCell id="6tzZUwA_6-HjAS6rVnxu-11" style="edgeStyle=none;rounded=0;html=1;startSize=10;endSize=10;jettySize=auto;orthogonalLoop=1;fontSize=14;endArrow=none;endFill=0;strokeWidth=2;exitX=0.437;exitY=0.972;exitDx=0;exitDy=0;exitPerimeter=0;" edge="1" parent="1" source="6tzZUwA_6-HjAS6rVnxu-9" target="6tzZUwA_6-HjAS6rVnxu-1">
          <mxGeometry relative="1" as="geometry">
            <mxPoint x="721.3130000000001" y="256.65999999999997" as="sourcePoint" />
            <mxPoint x="624.692" y="183.30750000000012" as="targetPoint" />
          </mxGeometry>
        </mxCell>
        <mxCell id="6tzZUwA_6-HjAS6rVnxu-12" style="edgeStyle=none;rounded=0;html=1;startSize=10;endSize=10;jettySize=auto;orthogonalLoop=1;fontSize=14;endArrow=none;endFill=0;strokeWidth=2;exitX=0.709;exitY=0.889;exitDx=0;exitDy=0;exitPerimeter=0;" edge="1" parent="1" source="6tzZUwA_6-HjAS6rVnxu-2" target="6tzZUwA_6-HjAS6rVnxu-1">
          <mxGeometry relative="1" as="geometry">
            <mxPoint x="357.5310000000004" y="359.99999999999994" as="sourcePoint" />
            <mxPoint x="330" y="379.9077284096224" as="targetPoint" />
          </mxGeometry>
        </mxCell>
        <mxCell id="6tzZUwA_6-HjAS6rVnxu-13" style="edgeStyle=none;rounded=0;html=1;startSize=10;endSize=10;jettySize=auto;orthogonalLoop=1;fontSize=14;endArrow=none;endFill=0;strokeWidth=2;" edge="1" parent="1" source="6tzZUwA_6-HjAS6rVnxu-3" target="6tzZUwA_6-HjAS6rVnxu-1">
          <mxGeometry relative="1" as="geometry">
            <mxPoint x="437.5310000000004" y="329.99999999999994" as="sourcePoint" />
            <mxPoint x="410" y="349.9077284096224" as="targetPoint" />
          </mxGeometry>
        </mxCell>
        <mxCell id="6tzZUwA_6-HjAS6rVnxu-14" style="edgeStyle=none;rounded=0;html=1;startSize=10;endSize=10;jettySize=auto;orthogonalLoop=1;fontSize=14;endArrow=none;endFill=0;strokeWidth=2;exitX=0.606;exitY=0.944;exitDx=0;exitDy=0;exitPerimeter=0;" edge="1" parent="1" source="6tzZUwA_6-HjAS6rVnxu-4" target="6tzZUwA_6-HjAS6rVnxu-1">
          <mxGeometry relative="1" as="geometry">
            <mxPoint x="753.0310000000004" y="328.31999999999994" as="sourcePoint" />
            <mxPoint x="660" y="320" as="targetPoint" />
          </mxGeometry>
        </mxCell>
        <mxCell id="6tzZUwA_6-HjAS6rVnxu-17" value="" style="aspect=fixed;perimeter=ellipsePerimeter;html=1;align=center;shadow=0;dashed=0;spacingTop=3;image;image=img/lib/active_directory/database_cube.svg;" vertex="1" parent="1">
          <mxGeometry x="1390" y="48.25" width="126" height="140" as="geometry" />
        </mxCell>
        <mxCell id="6tzZUwA_6-HjAS6rVnxu-19" style="edgeStyle=none;rounded=0;html=1;startSize=10;endSize=10;jettySize=auto;orthogonalLoop=1;fontSize=14;endArrow=none;endFill=0;strokeWidth=2;exitX=1.024;exitY=0.411;exitDx=0;exitDy=0;exitPerimeter=0;" edge="1" parent="1" source="6a7d8f32e03d9370-13" target="6tzZUwA_6-HjAS6rVnxu-17">
          <mxGeometry relative="1" as="geometry">
            <mxPoint x="1075" y="599.6858860195905" as="sourcePoint" />
            <mxPoint x="1290" y="689.0937221727515" as="targetPoint" />
          </mxGeometry>
        </mxCell>
        <mxCell id="6tzZUwA_6-HjAS6rVnxu-20" style="edgeStyle=none;rounded=0;html=1;startSize=10;endSize=10;jettySize=auto;orthogonalLoop=1;fontSize=14;endArrow=none;endFill=0;strokeWidth=2;exitX=0.981;exitY=0.41;exitDx=0;exitDy=0;exitPerimeter=0;entryX=0.055;entryY=0.454;entryDx=0;entryDy=0;entryPerimeter=0;" edge="1" parent="1" source="6a7d8f32e03d9370-15" target="6a7d8f32e03d9370-13">
          <mxGeometry relative="1" as="geometry">
            <mxPoint x="383.029" y="240.01999999999998" as="sourcePoint" />
            <mxPoint x="550.0000000000002" y="156.5060490144267" as="targetPoint" />
          </mxGeometry>
        </mxCell>
      </root>
    </mxGraphModel>
  </diagram>
</mxfile>
